<svg xmlns="http://www.w3.org/2000/svg" viewBox="0 0 675 200" width="675" height="200"><g><path d="M26.25,81.75 A73.75,73.75 0 0,1 173.75,81.75 V144 A48,48 0 0,1 125.75,192 H74.25 A48,48 0 0,1 26.25,144 Z M39.7,82 a60.3,60.3 0 1,0 120.6,0 a60.3,60.3 0 1,0 -120.6,0 Z M81.9,169.5 a18.1,18.1 0 1,0 36.2,0 a18.1,18.1 0 1,0 -36.2,0 Z" fill="#3DDC97" fill-rule="evenodd"/></g><path d="M276.704 137.344Q269.6 137.344 264.17600000000004 134.32Q258.752 131.296 255.728 125.776Q252.704 120.256 252.704 112.864V111.712Q252.704 104.224 255.68 98.75200000000001Q258.656 93.28 264.03200000000004 90.256Q269.408 87.232 276.416 87.232Q283.328 87.232 288.512 90.256Q293.696 93.28 296.576 98.75200000000001Q299.456 104.224 299.456 111.52V115.456H263.84Q264.032 121.024 267.77599999999995 124.384Q271.52 127.744 276.992 127.744Q282.368 127.744 284.96000000000004 125.392Q287.552 123.03999999999999 288.896 120.064L298.016 124.768Q296.672 127.36 294.12800000000004 130.288Q291.584 133.216 287.36 135.28Q283.136 137.344 276.704 137.344ZM263.936 107.104H288.224Q287.84000000000003 102.4 284.624 99.616Q281.408 96.832 276.32 96.832Q271.04 96.832 267.872 99.616Q264.704 102.4 263.936 107.104Z M328.448 137.344Q319.23199999999997 137.344 313.28 133.312Q307.328 129.28 306.08 121.504L316.256 118.912Q316.928 122.56 318.656 124.672Q320.384 126.78399999999999 322.928 127.648Q325.472 128.512 328.448 128.512Q332.96 128.512 335.216 126.88Q337.472 125.248 337.472 122.752Q337.472 120.16 335.312 118.912Q333.152 117.664 328.736 116.8L325.76 116.32Q320.864 115.36 316.832 113.68Q312.8 112.0 310.352 109.072Q307.904 106.144 307.904 101.632Q307.904 94.72 313.03999999999996 90.976Q318.176 87.232 326.528 87.232Q334.496 87.232 339.67999999999995 90.78399999999999Q344.864 94.336 346.4 100.288L336.224 103.36Q335.456 99.328 332.86400000000003 97.648Q330.272 95.96799999999999 326.528 95.96799999999999Q322.688 95.96799999999999 320.624 97.312Q318.56 98.656 318.56 101.152Q318.56 103.648 320.672 104.896Q322.784 106.144 326.336 106.72L329.312 107.29599999999999Q334.592 108.256 338.864 109.792Q343.13599999999997 111.328 345.63199999999995 114.208Q348.128 117.088 348.128 121.984Q348.128 129.376 342.79999999999995 133.36Q337.472 137.344 328.448 137.344Z M357.344 155.2V88.576H368.192V94.816H369.824Q371.456 91.84 375.05600000000004 89.536Q378.656 87.232 385.37600000000003 87.232Q391.136 87.232 396.08000000000004 90.064Q401.024 92.896 404.0 98.368Q406.976 103.84 406.976 111.52V113.056Q406.976 120.736 404.0 126.208Q401.024 131.68 396.12800000000004 134.512Q391.232 137.344 385.37600000000003 137.344Q380.86400000000003 137.344 377.84000000000003 136.288Q374.81600000000003 135.232 372.944 133.50400000000002Q371.072 131.776 370.016 130.048H368.384V155.2ZM382.112 127.744Q388.16 127.744 392.048 123.856Q395.93600000000004 119.968 395.93600000000004 112.768V111.80799999999999Q395.93600000000004 104.512 392.0 100.672Q388.064 96.832 382.112 96.832Q376.16 96.832 372.17600000000004 100.672Q368.192 104.512 368.192 111.80799999999999V112.768Q368.192 119.968 372.17600000000004 123.856Q376.16 127.744 382.112 127.744Z  M458.912 137.344Q449.69599999999997 137.344 443.74399999999997 133.312Q437.792 129.28 436.544 121.504L446.71999999999997 118.912Q447.392 122.56 449.12 124.672Q450.848 126.78399999999999 453.392 127.648Q455.936 128.512 458.912 128.512Q463.424 128.512 465.67999999999995 126.88Q467.936 125.248 467.936 122.752Q467.936 120.16 465.77599999999995 118.912Q463.616 117.664 459.2 116.8L456.224 116.32Q451.328 115.36 447.296 113.68Q443.264 112.0 440.81600000000003 109.072Q438.368 106.144 438.368 101.632Q438.368 94.72 443.504 90.976Q448.64 87.232 456.992 87.232Q464.96 87.232 470.144 90.78399999999999Q475.328 94.336 476.864 100.288L466.688 103.36Q465.92 99.328 463.328 97.648Q460.736 95.96799999999999 456.992 95.96799999999999Q453.152 95.96799999999999 451.08799999999997 97.312Q449.024 98.656 449.024 101.152Q449.024 103.648 451.13599999999997 104.896Q453.248 106.144 456.8 106.72L459.776 107.29599999999999Q465.056 108.256 469.328 109.792Q473.6 111.328 476.096 114.208Q478.592 117.088 478.592 121.984Q478.592 129.376 473.264 133.36Q467.936 137.344 458.912 137.344Z M509.98400000000004 137.344Q503.072 137.344 497.504 134.464Q491.93600000000004 131.584 488.72 126.112Q485.504 120.64 485.504 112.96000000000001V111.616Q485.504 103.936 488.72 98.464Q491.93600000000004 92.99199999999999 497.504 90.112Q503.072 87.232 509.98400000000004 87.232Q516.8 87.232 521.6479999999999 89.632Q526.496 92.032 529.472 96.208Q532.448 100.384 533.312 105.568L522.6560000000001 107.776Q522.272 104.8 520.8320000000001 102.352Q519.392 99.904 516.752 98.464Q514.112 97.024 510.272 97.024Q506.336 97.024 503.216 98.70400000000001Q500.096 100.384 498.32 103.744Q496.544 107.104 496.544 111.80799999999999V112.768Q496.544 117.47200000000001 498.32 120.784Q500.096 124.096 503.216 125.824Q506.336 127.55199999999999 510.272 127.55199999999999Q516.128 127.55199999999999 519.152 124.52799999999999Q522.176 121.504 522.944 116.70400000000001L533.6 119.2Q532.448 124.19200000000001 529.472 128.32Q526.496 132.448 521.6479999999999 134.89600000000002Q516.8 137.344 509.98400000000004 137.344Z M557.12 137.344Q552.1279999999999 137.344 548.096 135.56799999999998Q544.064 133.792 541.712 130.43200000000002Q539.36 127.072 539.36 122.176Q539.36 117.376 541.712 114.112Q544.064 110.848 548.192 109.168Q552.3199999999999 107.488 557.6 107.488H571.328V104.608Q571.328 100.864 569.024 98.512Q566.72 96.16 561.824 96.16Q557.024 96.16 554.576 98.416Q552.1279999999999 100.672 551.36 104.224L541.184 100.864Q542.336 97.12 544.88 94.048Q547.424 90.976 551.6479999999999 89.104Q555.872 87.232 562.016 87.232Q571.328 87.232 576.656 91.888Q581.9839999999999 96.544 581.9839999999999 105.376V124.0Q581.9839999999999 126.88 584.672 126.88H588.704V136.0H580.928Q577.472 136.0 575.2639999999999 134.272Q573.0559999999999 132.544 573.0559999999999 129.568V129.376H571.424Q570.848 130.72 569.4079999999999 132.64Q567.968 134.56 565.04 135.952Q562.112 137.344 557.12 137.344ZM558.944 128.32Q564.4159999999999 128.32 567.872 125.19999999999999Q571.328 122.08 571.328 116.8V115.84H558.2719999999999Q554.72 115.84 552.512 117.376Q550.304 118.912 550.304 121.888Q550.304 124.768 552.608 126.544Q554.912 128.32 558.944 128.32Z M595.904 136.0V68.8H606.944V136.0Z M640.7359999999999 137.344Q633.632 137.344 628.2079999999999 134.32Q622.7839999999999 131.296 619.7599999999999 125.776Q616.7359999999999 120.256 616.7359999999999 112.864V111.712Q616.7359999999999 104.224 619.7119999999999 98.75200000000001Q622.6879999999999 93.28 628.0639999999999 90.256Q633.4399999999999 87.232 640.448 87.232Q647.3599999999999 87.232 652.5439999999999 90.256Q657.728 93.28 660.608 98.75200000000001Q663.4879999999999 104.224 663.4879999999999 111.52V115.456H627.872Q628.064 121.024 631.808 124.384Q635.5519999999999 127.744 641.0239999999999 127.744Q646.4 127.744 648.992 125.392Q651.584 123.03999999999999 652.9279999999999 120.064L662.0479999999999 124.768Q660.704 127.36 658.16 130.288Q655.616 133.216 651.3919999999999 135.28Q647.1679999999999 137.344 640.7359999999999 137.344ZM627.968 107.104H652.256Q651.872 102.4 648.656 99.616Q645.4399999999999 96.832 640.352 96.832Q635.0719999999999 96.832 631.9039999999999 99.616Q628.7359999999999 102.4 627.968 107.104Z" fill="#090909"/></svg>